<?xml version="1.0" encoding="utf-8"?>
<!-- Generator: Adobe Illustrator 24.1.1, SVG Export Plug-In . SVG Version: 6.00 Build 0)  -->
<svg version="1.1" id="Layer_1" xmlns="http://www.w3.org/2000/svg" xmlns:xlink="http://www.w3.org/1999/xlink" x="0px" y="0px"
	 viewBox="0 0 24 24" style="enable-background:new 0 0 24 24;" xml:space="preserve">
<style type="text/css">
	.st0{fill:#FF9A00;}
</style>
<path class="st0" d="M10.5,10.7c-0.1-0.3-0.2-0.6-0.3-0.9c-0.1-0.3-0.2-0.6-0.3-0.9C9.9,8.6,9.8,8.3,9.7,8h0
	C9.6,8.5,9.5,8.9,9.4,9.4c-0.1,0.5-0.3,1-0.5,1.5c-0.1,0.5-0.3,1-0.4,1.4H11c-0.1-0.2-0.1-0.5-0.2-0.7C10.7,11.3,10.6,11,10.5,10.7z
	 M19.8,0H4.3C1.9,0,0,1.9,0,4.4v15.3C0,22.1,1.9,24,4.3,24h15.5c2.4,0,4.3-1.9,4.3-4.4V4.4C24,1.9,22.1,0,19.8,0z M14.7,17h-2.1
	c-0.1,0-0.1,0-0.2-0.1l-0.8-2.4H7.9l-0.8,2.4C7.1,16.9,7,17,7,17H5.1C5,17,4.9,16.9,5,16.8l3.2-9.5c0-0.1,0.1-0.2,0.1-0.3
	c0-0.2,0.1-0.4,0.1-0.7c0-0.1,0-0.1,0.1-0.1H11c0.1,0,0.1,0,0.1,0.1l3.7,10.6C14.8,16.9,14.8,17,14.7,17z M18.1,16.8
	c0,0.1,0,0.2-0.1,0.2h-2c-0.1,0-0.1-0.1-0.1-0.2V8.9c0-0.1,0-0.1,0.1-0.1h2c0.1,0,0.1,0.1,0.1,0.1V16.8z M17.9,7.5
	c-0.2,0.2-0.6,0.4-0.9,0.4c-0.3,0-0.6-0.1-0.9-0.4c-0.2-0.3-0.4-0.6-0.3-0.9c0-0.3,0.1-0.7,0.4-0.9c0.2-0.2,0.6-0.4,0.9-0.4
	c0.4,0,0.7,0.1,0.9,0.4c0.2,0.2,0.3,0.6,0.3,0.9C18.3,6.9,18.1,7.3,17.9,7.5z"/>
<rect class="st0" width="24" height="4.4"/>
<rect y="20.2" class="st0" width="24" height="3.8"/>
</svg>
