<?xml version="1.0" encoding="utf-8"?>
<!-- Generator: Adobe Illustrator 24.1.1, SVG Export Plug-In . SVG Version: 6.00 Build 0)  -->
<svg version="1.1" id="Layer_1" xmlns="http://www.w3.org/2000/svg" xmlns:xlink="http://www.w3.org/1999/xlink" x="0px" y="0px"
	 viewBox="0 0 24 24" style="enable-background:new 0 0 24 24;" xml:space="preserve">
<style type="text/css">
	.st0{fill:#31A8FF;}
</style>
<path class="st0" d="M9.9,8.3C9.5,8.2,9.1,8.1,8.7,8.1c-0.3,0-0.5,0-0.7,0c-0.2,0-0.3,0-0.4,0v3.4c0.1,0,0.3,0,0.4,0h0.5
	c0.4,0,0.8-0.1,1.1-0.2c0.3-0.1,0.6-0.3,0.8-0.5c0.2-0.3,0.3-0.6,0.3-1.1c0-0.3-0.1-0.6-0.2-0.9C10.4,8.6,10.1,8.4,9.9,8.3z M19.8,0
	H4.3C1.9,0,0,1.9,0,4.4v15.3C0,22.1,1.9,24,4.3,24h15.5c2.4,0,4.3-1.9,4.3-4.4V4.4C24,1.9,22.1,0,19.8,0z M12.4,11.9
	c-0.4,0.6-1,1-1.6,1.3c-0.7,0.3-1.4,0.3-2.3,0.3c-0.2,0-0.4,0-0.5,0c-0.1,0-0.2,0-0.4,0v3.3c0,0.1,0,0.1-0.1,0.1H5.5
	c-0.1,0-0.1,0-0.1-0.1V6.3c0-0.1,0-0.1,0.1-0.1c0.2,0,0.3,0,0.6,0c0.2,0,0.5,0,0.8,0c0.3,0,0.6,0,0.9,0c0.3,0,0.6,0,0.9,0
	c0.8,0,1.5,0.1,2.1,0.3c0.5,0.2,1,0.5,1.3,0.8c0.3,0.3,0.6,0.7,0.7,1.2C12.9,8.9,13,9.3,13,9.8C13,10.6,12.8,11.4,12.4,11.9z
	 M19.5,15.9c-0.3,0.4-0.7,0.7-1.1,0.9c-0.5,0.2-1.1,0.3-1.8,0.3c-0.5,0-0.9,0-1.4-0.1c-0.4-0.1-0.7-0.2-1-0.3
	c-0.1,0-0.1-0.1-0.1-0.2v-1.8c0,0,0-0.1,0-0.1c0,0,0.1,0,0.1,0c0.4,0.2,0.8,0.4,1.2,0.5c0.4,0.1,0.8,0.2,1.2,0.2
	c0.4,0,0.6-0.1,0.8-0.1c0.2-0.1,0.3-0.2,0.3-0.4c0-0.1-0.1-0.3-0.2-0.4c-0.2-0.1-0.5-0.3-1-0.5c-0.5-0.2-1-0.4-1.4-0.7
	c-0.3-0.2-0.6-0.5-0.8-0.9c-0.2-0.3-0.2-0.7-0.2-1c0-0.4,0.1-0.9,0.3-1.2c0.3-0.4,0.6-0.7,1-0.9c0.5-0.2,1.1-0.4,1.8-0.4
	c0.4,0,0.8,0,1.2,0.1c0.3,0,0.6,0.1,0.9,0.2c0,0,0.1,0.1,0.1,0.1c0,0,0,0.1,0,0.1v1.7c0,0,0,0.1,0,0.1c-0.1,0-0.1,0-0.2,0
	c-0.3-0.2-0.6-0.3-1-0.3c-0.4-0.1-0.7-0.1-1.1-0.1c-0.2,0-0.4,0-0.6,0.1c-0.1,0-0.2,0.1-0.3,0.2c0,0.1-0.1,0.2-0.1,0.3
	s0,0.2,0.1,0.3c0.1,0.1,0.2,0.2,0.3,0.3c0.2,0.1,0.5,0.2,0.7,0.3c0.5,0.2,1.1,0.4,1.5,0.7c0.3,0.2,0.6,0.5,0.8,0.9
	c0.2,0.3,0.2,0.7,0.2,1.1C19.9,15.1,19.7,15.5,19.5,15.9z"/>
<rect class="st0" width="24" height="4.4"/>
<rect y="19.6" class="st0" width="24" height="4.4"/>
</svg>
